<?xml version="1.0" standalone="no"?>
<!DOCTYPE svg PUBLIC "-//W3C//DTD SVG 20010904//EN"
 "http://www.w3.org/TR/2001/REC-SVG-20010904/DTD/svg10.dtd">
<svg version="1.0" xmlns="http://www.w3.org/2000/svg"
 width="2048.000000pt" height="2048.000000pt" viewBox="0 0 2048.000000 2048.000000"
 preserveAspectRatio="xMidYMid meet">

<g transform="translate(0.000000,2048.000000) scale(0.100000,-0.100000)"
fill="#000000" stroke="none">
<path d="M9770 20474 c-263 -12 -696 -51 -931 -84 -392 -54 -966 -167 -1169
-230 -52 -16 -180 -52 -283 -80 -214 -58 -482 -143 -637 -202 -518 -198 -681
-268 -1040 -447 -452 -225 -744 -394 -1135 -654 -488 -326 -1024 -756 -1450
-1165 -219 -211 -303 -298 -548 -573 -247 -276 -369 -424 -563 -684 -274 -366
-446 -624 -631 -945 -449 -783 -764 -1516 -983 -2296 -34 -120 -70 -248 -81
-284 -58 -200 -171 -758 -203 -1001 -8 -63 -22 -160 -31 -217 -64 -430 -103
-1356 -76 -1847 52 -957 147 -1544 396 -2450 118 -426 273 -846 515 -1385 63
-141 307 -619 385 -755 534 -928 1159 -1714 1945 -2446 188 -175 226 -208 385
-339 77 -63 167 -137 200 -166 233 -200 779 -577 1175 -811 401 -238 876 -471
1345 -660 432 -174 717 -268 1300 -427 140 -38 552 -128 780 -170 495 -91
1265 -156 1830 -156 317 0 1067 44 1210 70 28 5 93 14 145 20 614 73 1191 205
1873 428 720 236 1362 530 2057 942 324 191 864 572 1190 839 69 56 154 126
190 155 36 29 124 109 196 177 73 68 187 176 255 239 68 63 185 180 259 259
74 80 180 192 236 250 55 58 140 156 189 216 49 61 117 142 150 180 67 78 239
302 362 470 391 538 753 1168 1038 1804 242 542 464 1200 590 1750 50 216 142
713 170 917 29 206 69 598 87 859 17 237 17 1060 0 1315 -23 361 -60 700 -113
1055 -19 129 -128 660 -158 771 -16 60 -47 177 -70 259 -232 868 -581 1685
-1074 2520 -632 1070 -1524 2064 -2598 2896 -802 621 -1714 1119 -2729 1491
-281 103 -559 185 -1080 321 -394 103 -1069 210 -1600 253 -184 14 -1069 27
-1270 18z m-4195 -7137 c219 -63 362 -203 422 -412 14 -52 17 -127 21 -542 l4
-483 -406 0 -405 0 -3 348 c-3 305 -5 351 -20 378 -28 51 -70 64 -200 64 -131
0 -170 -14 -203 -70 -19 -33 -20 -52 -20 -315 0 -256 2 -283 19 -315 42 -78
170 -176 581 -446 297 -196 398 -267 467 -332 81 -76 134 -154 162 -236 20
-58 21 -85 24 -620 2 -368 -1 -583 -8 -630 -33 -215 -195 -379 -446 -448 -77
-21 -93 -22 -574 -19 -550 2 -582 5 -714 72 -149 75 -237 176 -293 334 l-28
80 0 470 0 470 402 1 402 2 3 -317 c3 -286 5 -320 22 -354 30 -61 61 -71 212
-71 218 -1 219 0 219 384 0 318 -3 333 -91 408 -65 56 -365 263 -644 444 -322
210 -407 286 -475 426 -49 100 -54 164 -54 677 -1 574 4 629 61 745 80 164
220 269 413 310 83 18 129 19 590 17 437 -3 508 -5 560 -20z m2530 0 c95 -27
204 -87 259 -142 61 -60 119 -156 147 -245 33 -101 36 -317 29 -1850 l-6
-1385 -23 -64 c-33 -89 -113 -204 -175 -251 -70 -53 -183 -104 -281 -126 -72
-17 -128 -19 -560 -19 -557 0 -585 3 -744 82 -123 61 -197 132 -246 235 -72
151 -68 53 -69 1733 -1 1645 -3 1581 56 1724 53 127 172 234 320 287 112 40
154 43 703 40 466 -2 537 -4 590 -19z m1695 -1682 l0 -1685 355 0 355 0 0
-340 0 -340 -62 0 c-137 -1 -1424 -2 -1440 -1 -17 1 -18 104 -18 2026 l0 2025
405 0 405 0 0 -1685z m2404 1673 c2 -7 13 -80 25 -163 13 -82 45 -267 72 -410
27 -143 69 -375 94 -515 24 -140 62 -352 84 -470 22 -118 61 -330 85 -470 56
-318 141 -792 207 -1145 79 -423 152 -856 145 -862 -7 -8 -768 -4 -776 3 -3 3
-23 128 -45 277 l-40 272 -288 3 c-225 2 -289 0 -292 -10 -3 -7 -20 -132 -39
-277 -19 -145 -38 -266 -41 -270 -6 -6 -756 -4 -762 3 -3 3 66 412 107 626 16
85 41 225 55 310 14 85 43 247 65 360 22 113 60 320 84 460 24 140 67 379 95
530 28 151 64 358 81 460 17 102 53 302 79 445 27 143 70 388 96 545 26 157
49 291 51 298 3 9 97 12 429 12 332 0 426 -3 429 -12z m2531 -2 c212 -33 357
-131 440 -300 70 -141 70 -146 67 -860 -2 -688 -3 -701 -56 -821 -14 -31 -42
-79 -62 -106 -34 -47 -135 -127 -179 -143 -17 -6 -11 -12 39 -39 92 -49 151
-109 191 -191 70 -145 68 -126 72 -888 l4 -688 -78 0 c-43 0 -210 -2 -372 -5
-162 -2 -304 -2 -316 1 -17 4 -24 16 -30 47 -4 23 -10 332 -14 687 -6 629 -7
646 -27 685 -15 28 -35 47 -70 65 -44 23 -62 25 -201 29 l-153 3 0 -756 0
-756 -55 -1 c-30 -1 -62 -1 -70 -1 -8 0 -163 0 -345 1 l-330 1 0 2025 0 2025
728 0 c568 0 747 -3 817 -14z m1765 -2011 l0 -2025 -87 -1 c-215 -4 -699 -4
-710 0 -10 2 -13 416 -13 2027 l0 2024 405 0 405 0 0 -2025z m-10320 -3205 l0
-310 -65 0 -65 0 0 310 0 310 65 0 65 0 0 -310z m466 158 c65 -84 136 -174
157 -201 l37 -49 0 201 0 201 65 0 65 0 0 -310 0 -311 -57 3 -57 3 -145 187
c-81 103 -149 187 -153 188 -5 0 -8 -85 -8 -190 l0 -190 -60 0 -60 0 0 310 0
310 48 0 48 0 120 -152z m950 120 c60 -31 109 -84 137 -147 25 -56 29 -173 8
-244 -18 -63 -78 -129 -149 -164 -54 -27 -65 -28 -219 -31 l-163 -4 0 312 0
312 168 -4 c157 -3 170 -5 218 -30z m484 -149 c0 -211 9 -257 57 -299 28 -25
42 -30 84 -30 63 0 100 21 131 74 22 39 23 53 26 239 l4 197 59 0 59 0 0 -193
c0 -214 -9 -265 -58 -333 -16 -21 -52 -52 -81 -68 -102 -55 -260 -31 -333 52
-63 73 -71 107 -76 319 -2 106 -2 199 2 208 4 11 21 15 66 15 l60 0 0 -181z
m823 119 c19 -35 61 -114 94 -177 l60 -113 92 176 92 176 70 0 69 0 0 -310 0
-310 -65 0 -65 0 0 198 0 197 -74 -140 c-40 -76 -80 -143 -88 -149 -8 -5 -26
-6 -41 -2 -20 5 -41 35 -106 153 l-81 148 0 -202 0 -203 -60 0 -60 0 0 168
c-1 92 -3 224 -7 294 -3 70 -3 134 0 142 5 12 22 16 71 16 l65 0 34 -62z
m1155 5 l3 -53 -155 0 -156 0 0 -75 0 -75 136 0 135 0 -3 -47 -3 -48 -133 -3
-133 -3 3 -75 3 -76 155 -1 155 -2 3 -52 3 -53 -220 0 -221 0 0 310 0 310 213
-2 212 -3 3 -52z m453 -110 c72 -93 141 -183 153 -200 12 -18 24 -33 29 -33 4
0 7 90 7 200 l0 200 60 0 60 0 0 -310 0 -310 -53 0 -53 0 -150 190 -149 189
-9 -32 c-4 -17 -6 -103 -4 -189 l4 -158 -63 0 -63 0 0 310 0 310 49 0 49 0
133 -167z m1025 143 c3 -13 4 -37 2 -52 l-3 -29 -102 -3 -103 -3 0 -254 0
-255 -60 0 -60 0 0 255 0 255 -100 0 -100 0 0 55 0 55 260 0 260 0 6 -24z
m455 -26 c130 -328 219 -556 219 -563 0 -4 -28 -7 -61 -5 -68 3 -65 0 -103 91
l-25 58 -112 -3 -112 -3 -26 -70 -27 -70 -67 -3 -66 -3 13 38 c8 21 50 128 93
238 44 110 92 233 107 273 l28 73 61 -3 61 -3 17 -45z m780 27 c66 -35 102
-93 107 -171 3 -46 0 -72 -13 -97 -21 -42 -64 -89 -82 -89 -20 0 -17 -6 45
-104 95 -148 94 -136 15 -136 l-68 0 -64 105 -63 105 -64 0 -64 0 0 -105 0
-106 -61 3 -62 3 1 270 c0 149 1 287 1 308 l1 37 163 0 c152 0 167 -2 208 -23z
m459 -287 l0 -310 -60 0 -60 0 0 310 0 310 60 0 60 0 0 -310z m576 263 c9 -27
62 -162 116 -301 54 -139 98 -257 98 -262 0 -6 -29 -10 -64 -10 l-64 0 -27 75
-28 75 -111 0 -111 0 -28 -75 -28 -75 -65 0 c-35 0 -64 4 -64 8 0 5 18 52 39
106 22 53 70 179 107 279 37 100 71 192 75 205 8 20 15 22 73 22 l64 0 18 -47z
m-8308 -260 l-3 -58 -880 3 -880 4 -3 54 -3 54 886 0 886 0 -3 -57z m10882 0
l0 -58 -898 1 -897 0 -3 57 -3 57 901 0 900 0 0 -57z"/>
<path d="M7319 12655 c-15 -8 -35 -31 -45 -52 -18 -37 -19 -84 -19 -1293 0
-1423 -7 -1302 82 -1342 39 -17 62 -19 167 -16 90 3 129 8 153 21 68 36 63
-54 63 1332 0 1382 4 1305 -62 1345 -29 18 -50 20 -173 20 -102 -1 -147 -5
-166 -15z"/>
<path d="M11756 11850 c-3 -25 -21 -153 -40 -285 -43 -291 -123 -895 -128
-950 l-3 -40 185 0 185 0 -3 35 c-8 84 -178 1253 -186 1275 -2 6 -6 -10 -10
-35z"/>
<path d="M13990 12076 l0 -606 170 0 c190 0 211 5 252 62 l23 33 0 507 c0 496
0 507 -21 535 -41 56 -82 68 -261 71 l-163 4 0 -606z"/>
<path d="M7340 8110 l0 -200 70 0 c146 0 219 68 220 203 0 129 -75 197 -220
197 l-70 0 0 -200z"/>
<path d="M11906 8269 c-3 -8 -21 -59 -41 -114 -19 -55 -35 -103 -35 -107 0 -5
39 -8 86 -8 78 0 85 2 79 18 -4 9 -23 62 -42 117 -39 111 -40 114 -47 94z"/>
<path d="M12520 8215 l0 -95 94 0 c89 0 96 1 115 25 29 38 35 78 17 114 -23
43 -44 51 -140 51 l-86 0 0 -95z"/>
<path d="M13687 8172 c-20 -60 -37 -114 -37 -120 0 -8 25 -12 80 -12 44 0 80
2 80 4 0 7 -72 211 -79 224 -4 7 -23 -34 -44 -96z"/>
</g>
</svg>
